<svg width="64" height="45" viewBox="0 0 64 45" fill="#2196F3" xmlns="http://www.w3.org/2000/svg">
<path d="M34.4616 41.5154C34.4616 43.9085 36.9799 45.5749 39.2511 44.8139C43.7741 43.2983 51.3009 41.2303 60.9697 40.2232C62.6758 40.0455 64 38.6409 64 36.9274C64 29.5582 64 10.7222 64 3.11399C64 1.30319 62.5335 -0.127346 60.7261 0.0089984C55.8761 0.374851 46.2863 1.59884 36.4053 5.69377C35.215 6.18704 34.4616 7.3436 34.4616 8.63092C34.4616 14.7367 34.4616 32.6357 34.4616 41.5154Z"/><path  d="M29.5384 41.5154C29.5384 43.9085 27.0201 45.5749 24.7489 44.8139C20.2259 43.2983 12.6991 41.2303 3.03027 40.2232C1.32422 40.0455 0 38.6409 0 36.9274C0 29.5582 0 10.7222 0 3.11399C0 1.30319 1.46646 -0.127346 3.27394 0.00899845C8.12394 0.374851 17.7137 1.59884 27.5947 5.69377C28.785 6.18704 29.5384 7.3436 29.5384 8.63092C29.5384 14.7367 29.5384 32.6357 29.5384 41.5154Z"/>
</svg>
