<svg width="40" height="40" viewBox="0 0 40 40" fill="#ffffff" xmlns="http://www.w3.org/2000/svg">
<path fill-rule="evenodd" clip-rule="evenodd" d="M20 40C31.0457 40 40 31.0457 40 20C40 8.9543 31.0457 0 20 0C8.9543 0 0 8.9543 0 20C0 31.0457 8.9543 40 20 40ZM20 6C18.8954 6 18 6.89543 18 8V20C18 20.684 18.3434 21.2879 18.8672 21.6485C18.9187 21.6839 18.9719 21.717 19.0267 21.7476L26.6214 26.1324C27.5779 26.6847 28.8011 26.3569 29.3534 25.4003C29.9057 24.4437 29.5779 23.2206 28.6214 22.6683L22 18.8454V8C22 6.89543 21.1046 6 20 6Z"/>
</svg>
