<svg width="38" height="40" viewBox="0 0 38 40" fill="#ffffff" xmlns="http://www.w3.org/2000/svg">
<path d="M7.125 11.7647V16.4706H4.75C2.12665 16.4706 0 18.5775 0 21.1765V35.2941C0 37.8931 2.12665 40 4.75 40H33.25C35.8734 40 38 37.8931 38 35.2941V21.1765C38 18.5775 35.8734 16.4706 33.25 16.4706H30.875V11.7647C30.875 5.26724 25.5584 0 19 0C12.4416 0 7.125 5.26724 7.125 11.7647ZM11.875 11.7647C11.875 7.86623 15.065 4.70588 19 4.70588C22.935 4.70588 26.125 7.86623 26.125 11.7647V16.4706H11.875V11.7647Z" />
</svg>
