<svg width="46" height="35" viewBox="0 0 46 35" fill="#ffffff" xmlns="http://www.w3.org/2000/svg">
<path d="M0 35V25.7895C0 22.9922 0.498505 20.0244 1.49552 16.886C2.52691 13.7134 4.00523 10.6603 5.93049 7.72661C7.89013 4.75877 10.2451 2.18323 12.9955 0L19.5964 5.32164C17.4305 8.39181 15.5396 11.5984 13.9238 14.9415C12.3423 18.2505 11.5516 21.7982 11.5516 25.5848V35H0ZM26.4036 35V25.7895C26.4036 22.9922 26.9021 20.0244 27.8991 16.886C28.9305 13.7134 30.4088 10.6603 32.3341 7.72661C34.2937 4.75877 36.6487 2.18323 39.3991 0L46 5.32164C43.8341 8.39181 41.9432 11.5984 40.3274 14.9415C38.7459 18.2505 37.9552 21.7982 37.9552 25.5848V35H26.4036Z"/></svg>
